<?xml version="1.0" encoding="utf-8"?>
<!-- Generator: Adobe Illustrator 16.0.0, SVG Export Plug-In . SVG Version: 6.00 Build 0)  -->
<!DOCTYPE svg PUBLIC "-//W3C//DTD SVG 1.1//EN" "http://www.w3.org/Graphics/SVG/1.1/DTD/svg11.dtd">
<svg version="1.1" id="Layer_1" xmlns="http://www.w3.org/2000/svg" xmlns:xlink="http://www.w3.org/1999/xlink" x="0px" y="0px"
	 width="20.675px" height="30px" viewBox="410.607 282.64 20.675 30" enable-background="new 410.607 282.64 20.675 30"
	 xml:space="preserve">
<path d="M430.109,289.611c-0.914,0-1.826,0-2.74,0c-0.404,0-0.809,0-1.213,0c-0.112-0.867-0.346-1.671-0.714-2.473
	c-0.364-0.793-0.886-1.523-1.511-2.15c0.977,0,1.951,0,2.928,0c1.072,0,2.145,0,3.217,0c0.012,0,0.021,0,0.033,0
	c0.639,0,1.174-0.534,1.174-1.174c0-0.64-0.535-1.174-1.174-1.174c-0.914,0-1.826,0-2.74,0c-2.029,0-4.059,0-6.088,0
	c-2.083,0-4.166,0-6.249,0c-1.073,0-2.145,0-3.218,0c-0.01,0-0.021,0-0.032,0c-0.44,0-0.83,0.252-1.031,0.618
	c-0.091,0.166-0.144,0.356-0.144,0.556c0,0.6,0.47,1.107,1.056,1.167c0.039,0.004,0.079,0.006,0.119,0.006c0.913,0,1.826,0,2.739,0
	c0.749,0,1.499,0,2.248,0c0.554,0,1.108,0,1.662,0c0.215,0.008,0.429,0.022,0.642,0.045c0.479,0.079,0.947,0.208,1.399,0.385
	c0.438,0.198,0.852,0.44,1.239,0.725c0.371,0.301,0.708,0.639,1.009,1.009c0.284,0.387,0.526,0.801,0.726,1.239
	c0.154,0.396,0.273,0.804,0.353,1.221c-0.839,0-1.679,0-2.518,0c-2.083,0-4.166,0-6.249,0c-1.073,0-2.145,0-3.218,0
	c-0.011,0-0.021,0-0.032,0c-0.64,0-1.174,0.534-1.174,1.174c0,0.64,0.534,1.174,1.174,1.174c0.913,0,1.826,0,2.739,0
	c2.03,0,4.06,0,6.089,0c1.028,0,2.058,0,3.086,0c-0.068,0.261-0.152,0.519-0.251,0.771c-0.198,0.438-0.441,0.853-0.726,1.24
	c-0.301,0.37-0.638,0.708-1.009,1.008c-0.387,0.284-0.801,0.527-1.239,0.725c-0.453,0.178-0.922,0.307-1.403,0.385
	c-0.659,0.071-1.332,0.045-1.993,0.045c-1.061,0-2.123,0-3.184,0c-0.704,0-1.407,0-2.11,0c-0.64,0-1.174,0.534-1.174,1.174
	c0,0.207,0,0.414,0,0.62c0,0.356,0.131,0.634,0.36,0.898c0.072,0.084,0.145,0.167,0.217,0.251c0.361,0.419,0.723,0.837,1.084,1.256
	c1.27,1.471,2.539,2.94,3.809,4.411c1.387,1.605,2.774,3.212,4.161,4.818c0.771,0.893,1.541,1.785,2.312,2.678
	c0.017,0.02,0.033,0.039,0.051,0.06c0.418,0.484,1.232,0.427,1.66,0c0.219-0.22,0.344-0.521,0.344-0.83
	c0-0.329-0.135-0.588-0.344-0.83c-0.609-0.706-1.219-1.412-1.828-2.118c-1.34-1.551-2.679-3.103-4.019-4.653
	c-1.336-1.547-2.671-3.094-4.007-4.641c-0.215-0.249-0.429-0.497-0.644-0.746c1.002,0,2.003,0,3.005,0
	c0.635,0,1.275,0.022,1.91-0.01c0.846-0.044,1.693-0.211,2.479-0.528c0.859-0.347,1.614-0.799,2.325-1.396
	c1.253-1.052,2.156-2.569,2.526-4.159c0.033-0.142,0.062-0.285,0.087-0.429c0.255,0,0.509,0,0.763,0c1.072,0,2.145,0,3.217,0
	c0.012,0,0.021,0,0.033,0c0.639,0,1.174-0.534,1.174-1.174C431.282,290.145,430.747,289.611,430.109,289.611z"/>
</svg>
