<?xml version="1.0" encoding="utf-8"?>
<!-- Generator: Adobe Illustrator 16.0.0, SVG Export Plug-In . SVG Version: 6.00 Build 0)  -->
<!DOCTYPE svg PUBLIC "-//W3C//DTD SVG 1.1//EN" "http://www.w3.org/Graphics/SVG/1.1/DTD/svg11.dtd">
<svg version="1.1" id="Layer_1" xmlns="http://www.w3.org/2000/svg" xmlns:xlink="http://www.w3.org/1999/xlink" x="0px" y="0px"
	 width="17.108px" height="15px" viewBox="297.446 388.5 17.108 15" enable-background="new 297.446 388.5 17.108 15"
	 xml:space="preserve">
<path fill="#BD9234" d="M314.555,393.428c-0.021-1.317-0.544-2.554-1.477-3.483c-0.935-0.932-2.17-1.445-3.479-1.445
	c-0.859,0-1.693,0.25-2.479,0.743c-0.391,0.246-0.772,0.554-1.138,0.919c-0.366-0.366-0.747-0.674-1.139-0.919
	c-0.785-0.493-1.618-0.743-2.478-0.743c-2.713,0-4.92,2.215-4.92,4.938c0,0.648,0.129,1.292,0.373,1.864
	c0.436,1.068,2.279,2.91,5.041,5.595l0.002,0.002c1.023,0.984,1.785,1.752,2.149,2.166c0.253,0.285,0.595,0.436,0.989,0.436
	c0.362,0,0.696-0.143,0.965-0.41l0.025-0.027c0.265-0.301,0.756-0.786,1.326-1.35c0.264-0.261,0.537-0.531,0.827-0.82
	c2.755-2.698,4.595-4.545,5.036-5.588l0.002-0.004c0.247-0.597,0.372-1.224,0.372-1.862V393.428z"/>
</svg>
