<?xml version="1.0" encoding="utf-8"?>
<!-- Generator: Adobe Illustrator 16.0.0, SVG Export Plug-In . SVG Version: 6.00 Build 0)  -->
<!DOCTYPE svg PUBLIC "-//W3C//DTD SVG 1.1//EN" "http://www.w3.org/Graphics/SVG/1.1/DTD/svg11.dtd">
<svg version="1.1" id="Layer_1" xmlns="http://www.w3.org/2000/svg" xmlns:xlink="http://www.w3.org/1999/xlink" x="0px" y="0px"
	 width="22.949px" height="21px" viewBox="409.47 287.14 22.949 21" enable-background="new 409.47 287.14 22.949 21"
	 xml:space="preserve">
<g>
	<g>
		<path d="M428.708,298.849c0-0.486-0.397-0.883-0.884-0.883c-0.485,0-0.883,0.397-0.883,0.883v2.208h-2.208
			c-0.486,0-0.884,0.397-0.884,0.884c0,0.485,0.397,0.883,0.884,0.883h2.208v2.208c0,0.485,0.397,0.884,0.883,0.884
			c0.486,0,0.884-0.398,0.884-0.884v-2.208h2.208c0.486,0,0.883-0.397,0.883-0.883c0-0.486-0.396-0.884-0.883-0.884h-2.208V298.849z
			"/>
	</g>
	<g>
		<path d="M421.031,308.14h-0.086c-0.193,0-0.552-0.039-0.837-0.298l-0.548-0.438c-3.775-2.949-10.09-7.885-10.09-13.634
			c0-3.656,2.974-6.63,6.629-6.63c1.848,0,3.598,0.773,4.846,2.108c1.248-1.334,2.998-2.108,4.845-2.108
			c3.655,0,6.63,2.974,6.63,6.63c0,1.239-0.323,2.562-0.959,3.929l-1.364-0.634c0.543-1.168,0.818-2.276,0.818-3.295
			c0-2.826-2.299-5.125-5.125-5.125c-1.683,0-3.263,0.833-4.226,2.227l-0.619,0.896l-0.619-0.896
			c-0.964-1.395-2.543-2.227-4.227-2.227c-2.825,0-5.124,2.299-5.124,5.125c0,2.136,1.122,4.477,3.335,6.956
			c1.965,2.201,4.401,4.105,6.181,5.495l0.007,0.005l0.489,0.393l0.247-0.202c0.408-0.312,0.85-0.667,1.316-1.045
			c0.211-0.17,0.427-0.345,0.647-0.521l0.94,1.175c-0.22,0.175-0.434,0.349-0.643,0.517c-0.471,0.381-0.917,0.74-1.339,1.062
			l-0.334,0.273l-0.031,0.021C421.707,307.956,421.402,308.14,421.031,308.14z"/>
	</g>
</g>
</svg>
