<?xml version="1.0" encoding="utf-8"?>
<!-- Generator: Adobe Illustrator 16.0.0, SVG Export Plug-In . SVG Version: 6.00 Build 0)  -->
<!DOCTYPE svg PUBLIC "-//W3C//DTD SVG 1.1//EN" "http://www.w3.org/Graphics/SVG/1.1/DTD/svg11.dtd">
<svg version="1.1" id="Layer_1" xmlns="http://www.w3.org/2000/svg" xmlns:xlink="http://www.w3.org/1999/xlink" x="0px" y="0px"
	 width="30px" height="30px" viewBox="0 0 30 30" enable-background="new 0 0 30 30" xml:space="preserve">
<path fill="#010101" d="M23.184,5.456c0.221-0.495,0.332-1.025,0.332-1.576V0h-4.809c-1.611,0-3.074,1.016-3.641,2.529L15,2.708
	l-0.066-0.179C14.367,1.016,12.904,0,11.291,0H6.484v3.886c0,0.55,0.111,1.08,0.332,1.576l0.045,0.1H0v6.839h1.854v14.64
	C1.854,28.673,3.182,30,4.812,30h15.064v-1.283h-3.199V12.4h10.189v14.642c0,0.924-0.752,1.676-1.676,1.676h-3.604V30h3.604
	c1.633,0,2.959-1.327,2.959-2.958V12.4h1.133l0.07-0.004H30V5.556h-6.861L23.184,5.456z M16.105,3.886
	c0-1.435,1.166-2.603,2.602-2.603h3.525V3.88c0,0.615-0.205,1.187-0.596,1.654L21.615,5.56h-5.51V3.886z M7.768,1.283h3.523
	c1.436,0,2.604,1.167,2.604,2.603V5.56H8.381L8.359,5.534C7.971,5.063,7.768,4.493,7.768,3.886V1.283z M15.395,28.717h-1.402v-7.622
	h-1.283v7.622H4.812c-0.924,0-1.676-0.752-1.676-1.676V12.4h9.572v5.987h1.283V12.4h1.402V28.717z M28.717,6.839v4.273h-1.85
	l-0.07,0.004H2.562l-0.07,0.002H1.283V6.845L28.717,6.839z"/>
</svg>
