<?xml version="1.0" encoding="utf-8"?>
<!-- Generator: Adobe Illustrator 16.0.0, SVG Export Plug-In . SVG Version: 6.00 Build 0)  -->
<!DOCTYPE svg PUBLIC "-//W3C//DTD SVG 1.1//EN" "http://www.w3.org/Graphics/SVG/1.1/DTD/svg11.dtd">
<svg version="1.1" id="Isolation_Mode" xmlns="http://www.w3.org/2000/svg" xmlns:xlink="http://www.w3.org/1999/xlink" x="0px"
	 y="0px" width="33px" height="33px" viewBox="1144.445 221.612 33 33" enable-background="new 1144.445 221.612 33 33"
	 xml:space="preserve">
<path d="M1150.84,245.253l-5.173-1.501l1.005-1.086c-1.285-1.207-2.228-2.747-2.228-4.553c0.009-1.399,0.535-2.583,1.394-3.665
	c1.268-1.544,3.077-2.686,5.101-3.503c-0.177,0.74-0.323,1.487-0.441,2.24c-0.883,0.446-1.694,0.972-2.398,1.586
	c-0.86,0.764-1.581,1.708-1.756,2.845c-0.115,0.764,0.042,1.49,0.396,2.165c0.301,0.571,0.73,1.086,1.194,1.52l1.004-1.086
	L1150.84,245.253L1150.84,245.253z M1157.278,229.378c1.284-0.157,2.53-0.226,3.667-0.226c2.696,0,5.427,0.339,8.015,1.103
	c3.544,1.046,8.459,3.563,8.485,7.857c-0.01,1.398-0.533,2.582-1.392,3.664c-3.286,4.006-10.214,5.297-15.108,5.297
	c-1.359,0-2.783-0.083-4.12-0.278l0.252-1.841c1.253,0.184,2.596,0.26,3.87,0.26c4.14,0,9.621-0.949,12.845-3.758
	c0.984-0.874,1.783-1.981,1.796-3.343c-0.021-2.223-2.154-3.844-3.933-4.788c-3.188-1.67-7.146-2.314-10.71-2.314
	c-1.351,0-2.845,0.101-4.357,0.334C1156.781,230.669,1157.011,230.01,1157.278,229.378L1157.278,229.378z M1165.87,248.553
	c0.742-0.116,1.489-0.258,2.229-0.433c-1.299,3.152-3.627,6.47-7.154,6.492c-1.399-0.009-2.584-0.533-3.665-1.392
	c-4.006-3.288-5.296-10.213-5.296-15.108c0-2.695,0.34-5.427,1.104-8.015c1.047-3.544,3.562-8.459,7.857-8.485
	c2.222,0,4.014,1.415,5.295,3.114l1.188-0.882l0.933,5.303l-4.804-2.434l1.188-0.881c-0.888-1.202-2.238-2.36-3.801-2.36
	c-2.223,0.02-3.844,2.156-4.788,3.934c-1.67,3.184-2.314,7.142-2.314,10.707c0,4.14,0.948,9.622,3.76,12.846
	c0.874,0.984,1.979,1.783,3.343,1.795c2.223-0.02,3.844-2.154,4.788-3.933L1165.87,248.553z"/>
</svg>
