<?xml version="1.0" encoding="utf-8"?>
<!-- Generator: Adobe Illustrator 16.0.0, SVG Export Plug-In . SVG Version: 6.00 Build 0)  -->
<!DOCTYPE svg PUBLIC "-//W3C//DTD SVG 1.1//EN" "http://www.w3.org/Graphics/SVG/1.1/DTD/svg11.dtd">
<svg version="1.1" id="Layer_1" xmlns="http://www.w3.org/2000/svg" xmlns:xlink="http://www.w3.org/1999/xlink" x="0px" y="0px"
	 width="19.994px" height="20px" viewBox="200.473 25.037 19.994 20" enable-background="new 200.473 25.037 19.994 20"
	 xml:space="preserve">
<path d="M219.686,39.399c-1.259-0.753-2.52-1.499-3.781-2.237c-0.682-0.405-1.62-0.279-2.168,0.284
	c-0.34,0.339-0.676,0.678-1.034,1.044c-0.312-0.072-0.606-0.197-0.878-0.375c-1.595-1.001-2.953-2.29-4.045-3.836
	c-0.336-0.438-0.59-0.928-0.763-1.481c0.312-0.306,0.619-0.615,0.919-0.922c0.544-0.529,0.663-1.36,0.293-2.014l-2.066-3.945
	c-0.211-0.447-0.625-0.771-1.125-0.869c-0.444-0.059-0.896,0.105-1.195,0.425l-0.887,0.885c-0.611,0.608-1.233,1.227-1.856,1.859
	c-0.336,0.346-0.547,0.801-0.596,1.279c-0.067,0.653-0.021,1.308,0.136,1.94c0.362,1.561,0.992,3.031,1.87,4.365
	c1.031,1.651,2.352,3.181,4.279,4.959c1.58,1.477,3.389,2.659,5.373,3.512c1.092,0.47,2.249,0.727,3.447,0.764h0.094
	c0.608,0,1.184-0.234,1.617-0.66c0.658-0.648,1.313-1.298,1.968-1.95l0.664-0.662c0.356-0.316,0.548-0.789,0.511-1.284
	C220.384,40.018,220.09,39.611,219.686,39.399z M206.275,32.055c-0.278,0.257-0.385,0.656-0.272,1.014
	c0.197,0.667,0.509,1.286,0.924,1.832c1.168,1.651,2.63,3.034,4.343,4.106c0.388,0.25,0.813,0.424,1.261,0.518
	c0.331,0.076,0.694-0.036,0.922-0.28c0.344-0.353,0.69-0.706,1.044-1.059c0.225-0.232,0.606-0.285,0.887-0.119l3.777,2.229
	c0.134,0.066,0.229,0.188,0.256,0.292c0.007,0.16-0.06,0.31-0.196,0.425l-0.675,0.672c-0.653,0.648-1.308,1.297-1.962,1.944
	c-0.236,0.23-0.548,0.358-0.878,0.358l-0.065-0.002c-1.062-0.031-2.096-0.26-3.069-0.68c-1.872-0.801-3.577-1.912-5.07-3.302
	c-1.862-1.721-3.128-3.186-4.104-4.752c-0.813-1.234-1.396-2.59-1.733-4.032c-0.13-0.52-0.169-1.055-0.115-1.59
	c0.022-0.249,0.129-0.486,0.297-0.665c0.926-0.935,1.846-1.855,2.741-2.742c0.068-0.075,0.161-0.119,0.263-0.125h0.034
	c0.146,0.044,0.269,0.154,0.336,0.311l2.085,3.955c0.149,0.252,0.104,0.568-0.118,0.778
	C206.887,31.459,206.58,31.767,206.275,32.055z"/>
</svg>
