<?xml version="1.0" encoding="utf-8"?>
<!-- Generator: Adobe Illustrator 16.0.0, SVG Export Plug-In . SVG Version: 6.00 Build 0)  -->
<!DOCTYPE svg PUBLIC "-//W3C//DTD SVG 1.1//EN" "http://www.w3.org/Graphics/SVG/1.1/DTD/svg11.dtd">
<svg version="1.1" id="Layer_1" xmlns="http://www.w3.org/2000/svg" xmlns:xlink="http://www.w3.org/1999/xlink" x="0px" y="0px"
	 width="25.561px" height="28px" viewBox="1243.884 224.204 25.561 28" enable-background="new 1243.884 224.204 25.561 28"
	 xml:space="preserve">
<g transform="translate(0,-952.36218)">
	<path d="M1244.769,1204.565c-0.515-0.026-0.911-0.466-0.884-0.981c0.026-0.515,0.466-0.911,0.981-0.885l0,0h23.632
		c0.516-0.007,0.938,0.405,0.946,0.92c0.007,0.515-0.404,0.939-0.92,0.946c-0.009,0-0.018,0-0.026,0h-23.632
		C1244.834,1204.567,1244.802,1204.567,1244.769,1204.565z M1256.644,1199.59c-0.225-0.009-0.439-0.099-0.603-0.252l-6.841-6.53
		c-0.395-0.332-0.443-0.92-0.111-1.314c0.332-0.394,0.921-0.444,1.314-0.111c0.027,0.023,0.055,0.049,0.079,0.075l5.267,5.024
		v-18.968c-0.007-0.516,0.404-0.939,0.92-0.946s0.938,0.405,0.946,0.92c0,0.009,0,0.018,0,0.026v18.968l5.267-5.024
		c0.352-0.376,0.942-0.396,1.318-0.043c0.376,0.353,0.396,0.943,0.044,1.319c-0.025,0.027-0.052,0.052-0.08,0.075l-6.841,6.53
		C1257.14,1199.51,1256.895,1199.601,1256.644,1199.59z"/>
</g>
</svg>
