<?xml version="1.0" encoding="utf-8"?>
<!-- Generator: Adobe Illustrator 16.0.0, SVG Export Plug-In . SVG Version: 6.00 Build 0)  -->
<!DOCTYPE svg PUBLIC "-//W3C//DTD SVG 1.1//EN" "http://www.w3.org/Graphics/SVG/1.1/DTD/svg11.dtd">
<svg version="1.1" id="Layer_1" xmlns="http://www.w3.org/2000/svg" xmlns:xlink="http://www.w3.org/1999/xlink" x="0px" y="0px"
	 width="24.109px" height="20px" viewBox="173.069 27.397 24.109 20" enable-background="new 173.069 27.397 24.109 20"
	 xml:space="preserve">
<path d="M196.89,33.995l-11.169-6.598h-0.584l-11.679,6.754l-0.052,0.03l-0.289,0.521l-0.048,12.054l0.594,0.594l22.832,0.047h0.09
	l0.594-0.594V34.516L196.89,33.995z M174.394,45.423l0.086-9.512l7.146,3.788L174.394,45.423z M194.431,46.029l-18.522-0.044
	l9.239-7.4L194.431,46.029z M187.412,38.702l-1.907-1.545h-0.713l-2.003,1.593l-7.564-4.046l10.155-5.906l9.651,5.72L187.412,38.702
	z M188.571,39.603l7.241-3.965v9.784L188.571,39.603z"/>
</svg>
