<?xml version="1.0" encoding="utf-8"?>
<!-- Generator: Adobe Illustrator 16.0.0, SVG Export Plug-In . SVG Version: 6.00 Build 0)  -->
<!DOCTYPE svg PUBLIC "-//W3C//DTD SVG 1.1//EN" "http://www.w3.org/Graphics/SVG/1.1/DTD/svg11.dtd">
<svg version="1.1" id="Layer_1" xmlns="http://www.w3.org/2000/svg" xmlns:xlink="http://www.w3.org/1999/xlink" x="0px" y="0px"
	 width="32px" height="32px" viewBox="1364.537 438.5 32 32" enable-background="new 1364.537 438.5 32 32" xml:space="preserve">
<g id="Line">
	<g>
		<path d="M1395.471,439.566v29.867h-29.867v-29.867H1395.471 M1396.537,438.5h-32v32h32V438.5L1396.537,438.5z"/>
		<path d="M1395.471,439.566v29.867h-29.867v-29.867H1395.471 M1396.537,438.5h-32v32h32V438.5L1396.537,438.5z"/>
	</g>
	<path d="M1378.289,463.164h3.58v-8.665h2.389l0.316-2.986h-2.705l0.004-1.495c0-0.779,0.074-1.196,1.191-1.196h1.493v-2.987h-2.39
		c-2.869,0-3.879,1.449-3.879,3.885v1.793h-1.789v2.987h1.789V463.164L1378.289,463.164z"/>
</g>
</svg>
