<?xml version="1.0" encoding="utf-8"?>
<!-- Generator: Adobe Illustrator 16.0.0, SVG Export Plug-In . SVG Version: 6.00 Build 0)  -->
<!DOCTYPE svg PUBLIC "-//W3C//DTD SVG 1.1//EN" "http://www.w3.org/Graphics/SVG/1.1/DTD/svg11.dtd">
<svg version="1.1" id="Layer_1" xmlns="http://www.w3.org/2000/svg" xmlns:xlink="http://www.w3.org/1999/xlink" x="0px" y="0px"
	 width="30.6px" height="28px" viewBox="1212.535 224.113 30.6 28" enable-background="new 1212.535 224.113 30.6 28"
	 xml:space="preserve">
<g>
	<path d="M1241.131,242.669h-2.944v-2.944c0-0.647-0.529-1.178-1.178-1.178c-0.647,0-1.178,0.53-1.178,1.178v2.944h-2.943
		c-0.648,0-1.178,0.53-1.178,1.178s0.529,1.177,1.178,1.177h2.943v2.944c0,0.648,0.53,1.178,1.178,1.178
		c0.648,0,1.178-0.53,1.178-1.178v-2.944h2.944c0.647,0,1.178-0.529,1.178-1.177S1241.779,242.669,1241.131,242.669z"/>
	<path d="M1229.977,248.422c-0.623,0.502-1.211,0.978-1.756,1.393l-0.33,0.269l-0.652-0.522l-0.009-0.007
		c-2.372-1.853-5.621-4.391-8.24-7.327c-2.951-3.306-4.447-6.427-4.447-9.275c0-3.768,3.065-6.833,6.833-6.833
		c2.243,0,4.35,1.11,5.635,2.969l0.825,1.195l0.825-1.195c1.285-1.859,3.392-2.969,5.635-2.969c3.768,0,6.833,3.065,6.833,6.833
		c0,1.358-0.367,2.836-1.092,4.394l1.82,0.846c0.848-1.824,1.278-3.587,1.278-5.24c0-4.874-3.966-8.839-8.84-8.839
		c-2.462,0-4.796,1.032-6.46,2.811c-1.664-1.779-3.998-2.811-6.46-2.811c-4.874,0-8.84,3.965-8.84,8.839
		c0,7.667,8.42,14.247,13.454,18.18l0.729,0.584c0.382,0.344,0.858,0.397,1.116,0.397h0.114c0.495,0,0.902-0.246,1.016-0.321
		l0.041-0.027l0.444-0.364c0.563-0.429,1.158-0.909,1.787-1.417c0.277-0.225,0.563-0.455,0.855-0.689l-1.253-1.567
		C1230.545,247.962,1230.257,248.195,1229.977,248.422z"/>
</g>
</svg>
