<?xml version="1.0" encoding="utf-8"?>
<!-- Generator: Adobe Illustrator 16.0.0, SVG Export Plug-In . SVG Version: 6.00 Build 0)  -->
<!DOCTYPE svg PUBLIC "-//W3C//DTD SVG 1.1//EN" "http://www.w3.org/Graphics/SVG/1.1/DTD/svg11.dtd">
<svg version="1.1" id="Layer_1" xmlns="http://www.w3.org/2000/svg" xmlns:xlink="http://www.w3.org/1999/xlink" x="0px" y="0px"
	 width="32.467px" height="35px" viewBox="0 0 32.467 35" enable-background="new 0 0 32.467 35" xml:space="preserve">
<g>
	<path d="M32.413,15.062c0.021-0.038,0.035-0.079,0.047-0.12v-0.043c0.01-0.054,0.01-0.11,0-0.163l0,0
		c-0.008-0.039-0.021-0.077-0.037-0.114c0-0.011,0-0.023,0-0.033l0,0L27.78,7.399l-0.076-0.11V7.262
		c-0.041-0.036-0.088-0.068-0.14-0.09l0,0l0,0c-0.054-0.02-0.108-0.03-0.163-0.03H5.048C4.991,7.144,4.935,7.156,4.884,7.177l0,0
		l0,0c-0.051,0.022-0.1,0.055-0.139,0.095l0,0c-0.021,0.02-0.04,0.041-0.052,0.062l-4.648,7.188l0,0
		c-0.001,0.012-0.001,0.023,0,0.033c-0.018,0.036-0.03,0.074-0.039,0.115l0,0c-0.008,0.053-0.008,0.109,0,0.163v0.044
		c0.012,0.041,0.028,0.081,0.048,0.119v0.033l0,0L8.837,26c0.146,0.215,0.437,0.277,0.657,0.135c0.205-0.164,0.236-0.467,0.072-0.67
		L1.42,15.273h6.292l6.762,16.344l-3.833-4.793c-0.166-0.205-0.467-0.236-0.671-0.068c-0.206,0.162-0.24,0.463-0.077,0.668
		l5.938,7.416l0,0c0.041,0.051,0.092,0.088,0.148,0.115h0.039c0.118,0.059,0.255,0.059,0.374,0h0.038
		c0.058-0.027,0.109-0.068,0.15-0.115l0,0l15.798-19.725l0,0L32.413,15.062z M12.463,10.892c-0.176-0.198-0.479-0.213-0.676-0.038
		l-3.57,3.158L5.763,8.083h9.152l-1.754,1.549c-0.199,0.177-0.216,0.48-0.039,0.679c0.177,0.2,0.481,0.215,0.681,0.038l2.395-2.103
		l6.905,6.09H9.295l3.129-2.77C12.622,11.392,12.638,11.088,12.463,10.892z M17.451,8.084h9.19l-2.454,5.932L17.451,8.084z
		 M27.452,8.634l3.67,5.702h-6.035L27.452,8.634z M1.279,14.335l3.675-5.708l2.363,5.708H1.279z M17.93,31.621l4.435-10.695
		c0.104-0.246-0.018-0.525-0.261-0.629c-0.248-0.104-0.528,0.016-0.63,0.26l-5.272,12.74L8.75,15.293h14.905l-0.957,2.302
		c-0.103,0.245,0.012,0.525,0.256,0.625c0,0.003,0.002,0.003,0.002,0.003c0.061,0.022,0.123,0.03,0.188,0.03
		c0.191,0,0.367-0.113,0.439-0.292l1.106-2.668h6.313L17.93,31.621z"/>
	<path d="M16.201,4.927c0.264,0,0.48-0.215,0.48-0.479V0.479c0-0.265-0.215-0.479-0.48-0.479s-0.479,0.214-0.479,0.479v3.967
		C15.722,4.71,15.936,4.927,16.201,4.927z"/>
	<path d="M21.141,5.419c0.125,0,0.247-0.051,0.336-0.14l2.81-2.808c0.186-0.187,0.186-0.488,0-0.675
		c-0.188-0.188-0.49-0.19-0.679-0.004c-0.001,0.002-0.002,0.003-0.003,0.004L20.802,4.6c-0.188,0.186-0.189,0.489-0.004,0.677
		C20.888,5.369,21.013,5.419,21.141,5.419L21.141,5.419z"/>
	<path d="M10.93,5.279c0.188,0.187,0.49,0.185,0.677-0.002c0.187-0.188,0.186-0.49-0.002-0.678l0,0L8.798,1.797
		C8.612,1.608,8.31,1.608,8.121,1.794c-0.001,0-0.002,0.002-0.003,0.003c-0.185,0.187-0.185,0.487,0,0.676L10.93,5.279z"/>
</g>
</svg>
