<?xml version="1.0" encoding="utf-8"?>
<!-- Generator: Adobe Illustrator 16.0.0, SVG Export Plug-In . SVG Version: 6.00 Build 0)  -->
<!DOCTYPE svg PUBLIC "-//W3C//DTD SVG 1.1//EN" "http://www.w3.org/Graphics/SVG/1.1/DTD/svg11.dtd">
<svg version="1.1" id="Layer_1" xmlns="http://www.w3.org/2000/svg" xmlns:xlink="http://www.w3.org/1999/xlink" x="0px" y="0px"
	 width="25.608px" height="36px" viewBox="-1.423 -2 25.608 36" enable-background="new -1.423 -2 25.608 36" xml:space="preserve">
<g>
	<path d="M11.461,27.721"/>
	<rect x="13.395" y="4.31" fill="none" width="2.129" height="2.719"/>
	<rect x="13.395" y="14.304" fill="none" width="2.129" height="2.72"/>
	<rect x="6.346" y="14.304" fill="none" width="2.13" height="2.72"/>
	<rect x="6.346" y="4.31" fill="none" width="2.13" height="2.719"/>
	<rect x="6.346" y="24.297" fill="none" width="2.13" height="2.721"/>
	<path d="M15.963,13.429h-3.006c-0.242,0-0.44,0.196-0.44,0.438v3.594c0,0.242,0.198,0.438,0.44,0.438h3.006
		c0.24,0,0.438-0.195,0.438-0.438v-3.594C16.401,13.625,16.203,13.429,15.963,13.429z M15.523,17.023h-2.131v-2.72h2.131V17.023z"/>
	<path d="M16.401,3.874c0-0.242-0.197-0.438-0.438-0.438h-3.006c-0.242,0-0.44,0.196-0.44,0.438v3.594
		c0,0.242,0.198,0.438,0.44,0.438h3.006c0.24,0,0.438-0.196,0.438-0.438V3.874z M15.523,7.028h-2.131V4.309h2.131V7.028z"/>
	<path d="M9.352,3.874c0-0.242-0.198-0.438-0.439-0.438H5.909c-0.242,0-0.438,0.196-0.438,0.438v3.594
		c0,0.242,0.196,0.438,0.438,0.438h3.004c0.242,0,0.439-0.196,0.439-0.438L9.352,3.874L9.352,3.874z M8.476,7.028h-2.13V4.309h2.13
		V7.028z"/>
	<path d="M9.352,13.867c0-0.242-0.198-0.438-0.439-0.438H5.909c-0.242,0-0.438,0.196-0.438,0.438v3.594
		c0,0.242,0.196,0.438,0.438,0.438h3.004c0.242,0,0.439-0.195,0.439-0.438L9.352,13.867L9.352,13.867z M8.476,17.023h-2.13v-2.72
		h2.13V17.023z"/>
	<path d="M8.913,23.422H5.909c-0.242,0-0.438,0.196-0.438,0.438v3.595c0,0.242,0.196,0.439,0.438,0.439h3.004
		c0.242,0,0.439-0.197,0.439-0.439v-3.595C9.352,23.618,9.155,23.422,8.913,23.422z M8.476,27.018h-2.13v-2.721h2.13V27.018z"/>
	<path d="M24.062,33.258c-0.083-0.086-0.191-0.133-0.315-0.135h-2.223V11.192h-0.876v21.931h-4.247V21.236
		c0-0.242-0.197-0.439-0.438-0.439H11.9c-0.242,0-0.438,0.197-0.438,0.439v7.512h0.875v-1.027v-6.047h3.186v11.328h-3.186v-1.927
		h-0.875v2.048H2.11V-1.125h18.538v9.617h0.876V-1.562C21.524-1.805,21.325-2,21.085-2H1.673C1.432-2,1.233-1.805,1.233-1.562
		v34.685h-2.218c-0.237,0-0.434,0.193-0.438,0.434c-0.001,0.117,0.043,0.226,0.122,0.31c0.084,0.085,0.193,0.132,0.319,0.134h24.73
		c0.239,0,0.436-0.193,0.438-0.433C24.185,33.451,24.141,33.341,24.062,33.258z"/>
</g>
</svg>
