<?xml version="1.0" encoding="utf-8"?>
<!-- Generator: Adobe Illustrator 16.0.0, SVG Export Plug-In . SVG Version: 6.00 Build 0)  -->
<!DOCTYPE svg PUBLIC "-//W3C//DTD SVG 1.1//EN" "http://www.w3.org/Graphics/SVG/1.1/DTD/svg11.dtd">
<svg version="1.1" id="Layer_1" xmlns="http://www.w3.org/2000/svg" xmlns:xlink="http://www.w3.org/1999/xlink" x="0px" y="0px"
	 width="17.108px" height="15px" viewBox="297.446 388.5 17.108 15" enable-background="new 297.446 388.5 17.108 15"
	 xml:space="preserve">
<g>
	<path d="M306.001,403.5c-0.395,0-0.736-0.15-0.989-0.436c-0.364-0.414-1.126-1.182-2.149-2.166l-0.002-0.002
		c-2.762-2.686-4.605-4.527-5.041-5.595c-0.244-0.571-0.373-1.216-0.373-1.864c0-2.723,2.207-4.938,4.92-4.938
		c0.859,0,1.692,0.25,2.478,0.743c0.392,0.246,0.772,0.554,1.139,0.919c0.365-0.366,0.747-0.674,1.138-0.919
		c0.785-0.493,1.619-0.743,2.479-0.743c1.31,0,2.545,0.513,3.479,1.445c0.933,0.929,1.456,2.166,1.477,3.483v0.009
		c0,0.639-0.125,1.266-0.372,1.862l-0.002,0.004c-0.441,1.043-2.281,2.89-5.036,5.588c-0.29,0.289-0.563,0.56-0.827,0.82
		c-0.57,0.563-1.062,1.049-1.326,1.35l-0.025,0.027C306.697,403.357,306.363,403.5,306.001,403.5z M303.688,400.044
		c0.739,0.712,1.724,1.677,2.214,2.233c0.018,0.02,0.03,0.035,0.1,0.035c0.021,0,0.058,0,0.114-0.053
		c0.293-0.33,0.769-0.8,1.367-1.391c0.264-0.262,0.536-0.531,0.824-0.818l0.005-0.004c2.058-2.016,4.39-4.299,4.774-5.203
		c0.186-0.45,0.28-0.922,0.281-1.402c-0.017-1.004-0.417-1.947-1.128-2.655c-0.71-0.709-1.648-1.099-2.641-1.099
		c-1.119,0-2.184,0.584-3.164,1.736l-0.452,0.531l-0.452-0.531c-0.98-1.152-2.045-1.736-3.164-1.736
		c-2.058,0-3.732,1.682-3.732,3.75c0,0.491,0.097,0.976,0.279,1.401l0.005,0.012C299.287,395.765,301.728,398.138,303.688,400.044z"
		/>
</g>
</svg>
