<?xml version="1.0" encoding="utf-8"?>
<!-- Generator: Adobe Illustrator 16.0.0, SVG Export Plug-In . SVG Version: 6.00 Build 0)  -->
<!DOCTYPE svg PUBLIC "-//W3C//DTD SVG 1.1//EN" "http://www.w3.org/Graphics/SVG/1.1/DTD/svg11.dtd">
<svg version="1.1" id="Layer_1" xmlns="http://www.w3.org/2000/svg" xmlns:xlink="http://www.w3.org/1999/xlink" x="0px" y="0px"
	 width="17.976px" height="35px" viewBox="-0.769 -1.5 17.976 35" enable-background="new -0.769 -1.5 17.976 35"
	 xml:space="preserve">
<path d="M16.13,1.281c-0.056-0.217-0.251-0.372-0.477-0.372c-0.039,0-0.078,0.004-0.115,0.015c-0.263,0.064-0.425,0.331-0.359,0.592
	c0.006,0.021,0.011,0.038,0.017,0.052c0.657,2.115,0.978,4.611,1.006,7.85H13.48c-0.266,0-0.486,0.217-0.488,0.483
	c-0.001,0.087,0.022,0.175,0.065,0.25l1.9,3.413c-1.996,4.509-6.438,8.918-11.92,11.838c2.483-6.163,5.379-12.08,8.854-18.078
	c0.142-0.229,0.067-0.53-0.161-0.671c-0.106-0.067-0.241-0.088-0.356-0.062c-0.144,0.027-0.265,0.115-0.335,0.244
	C7.611,12.75,4.744,18.593,2.277,24.678c-0.29-1.82-0.431-3.482-0.431-5.069c0-4.155,1.009-7.771,3.085-11.055
	c2.164-3.421,5.439-6.413,10.014-9.147c0.229-0.143,0.3-0.444,0.159-0.673c-0.1-0.162-0.29-0.255-0.481-0.229h-0.009
	c-0.062,0.017-0.116,0.041-0.162,0.073C5.31,4.042,0.867,10.921,0.867,19.61c0,2.234,0.229,4.472,0.705,6.841
	c-0.812,2.087-1.582,4.219-2.29,6.342c-0.119,0.239-0.023,0.53,0.213,0.655C-0.435,33.481-0.358,33.5-0.28,33.5
	c0.184,0,0.35-0.1,0.435-0.265c0.022-0.043,0.038-0.087,0.046-0.135c0.712-2.138,1.472-4.246,2.258-6.264
	c6.257-3.042,11.299-7.934,13.491-13.09c0.066-0.141,0.06-0.307-0.017-0.442l-1.609-2.906h2.396c0.269,0,0.486-0.219,0.487-0.488
	C17.205,6.389,16.864,3.648,16.13,1.281z"/>
</svg>
