<?xml version="1.0" encoding="utf-8"?>
<!-- Generator: Adobe Illustrator 16.0.0, SVG Export Plug-In . SVG Version: 6.00 Build 0)  -->
<!DOCTYPE svg PUBLIC "-//W3C//DTD SVG 1.1//EN" "http://www.w3.org/Graphics/SVG/1.1/DTD/svg11.dtd">
<svg version="1.1" id="Layer_1" xmlns="http://www.w3.org/2000/svg" xmlns:xlink="http://www.w3.org/1999/xlink" x="0px" y="0px"
	 width="28.947px" height="22px" viewBox="6.579 5 28.947 22" enable-background="new 6.579 5 28.947 22" xml:space="preserve">
<path d="M35.526,23.526V8.473c0-1.93-1.543-3.473-3.475-3.473h-22c-1.93,0-3.473,1.543-3.473,3.473v15.054
	c0,1.93,1.543,3.474,3.473,3.474h22C33.983,27,35.526,25.456,35.526,23.526z M8.038,23.526V8.473c0-1.114,0.901-2.058,2.058-2.058
	h22.001c1.114,0,2.058,0.902,2.058,2.058v15.054c0,1.114-0.901,2.059-2.058,2.059H10.095C8.938,25.585,8.038,24.684,8.038,23.526z
	 M16.186,16.966l0.986,1.028l-6.345,6.003l-0.988-1.03L16.186,16.966z M32.309,8.902L21.074,18.979L9.838,8.902l0.944-1.073
	l10.293,9.221l10.292-9.221L32.309,8.902z M32.309,22.968l-0.986,1.03l-6.304-6.004l0.986-1.028L32.309,22.968z"/>
</svg>
