<?xml version="1.0" encoding="utf-8"?>
<!-- Generator: Adobe Illustrator 16.0.0, SVG Export Plug-In . SVG Version: 6.00 Build 0)  -->
<!DOCTYPE svg PUBLIC "-//W3C//DTD SVG 1.1//EN" "http://www.w3.org/Graphics/SVG/1.1/DTD/svg11.dtd">
<svg version="1.1" id="Layer_1" xmlns="http://www.w3.org/2000/svg" xmlns:xlink="http://www.w3.org/1999/xlink" x="0px" y="0px"
	 width="32px" height="32px" viewBox="1707.939 484 32 32" enable-background="new 1707.939 484 32 32" xml:space="preserve">
<g>
	<g>
		<path d="M1738.872,485.066v29.867h-29.866v-29.867H1738.872 M1739.939,484h-32v32h32V484L1739.939,484z"/>
		<path d="M1738.872,485.066v29.867h-29.866v-29.867H1738.872 M1739.939,484h-32v32h32V484L1739.939,484z"/>
	</g>
	<path d="M1730.938,490.669h-13.997c-1.317,0-2.333,1.015-2.333,2.333v13.996c0,1.316,1.016,2.333,2.333,2.333h13.996
		c1.316,0,2.333-1.016,2.333-2.333v-13.996C1733.271,491.684,1732.255,490.669,1730.938,490.669z M1723.953,496.334
		c2.069,0,3.746,1.625,3.746,3.631c0,2.004-1.677,3.631-3.746,3.631c-2.068,0-3.745-1.627-3.745-3.631
		C1720.208,497.959,1721.886,496.334,1723.953,496.334z M1730.938,506.415c0,0.408-0.175,0.583-0.584,0.583h-12.829
		c-0.408,0-0.584-0.174-0.584-0.583v-8.165l1.454,0.316c-0.156,0.508-0.241,1.044-0.241,1.6c0,3.101,2.599,5.618,5.799,5.618
		c3.203,0,5.798-2.516,5.798-5.618c0-0.557-0.084-1.093-0.24-1.6l1.426-0.316v8.165H1730.938z M1730.938,495.917
		c0,0.322-0.262,0.583-0.584,0.583h-2.332c-0.322,0-0.584-0.261-0.584-0.583v-2.332c0-0.322,0.262-0.583,0.584-0.583h2.332
		c0.322,0,0.584,0.261,0.584,0.583V495.917z"/>
</g>
</svg>
