<?xml version="1.0" encoding="utf-8"?>
<!-- Generator: Adobe Illustrator 16.0.0, SVG Export Plug-In . SVG Version: 6.00 Build 0)  -->
<!DOCTYPE svg PUBLIC "-//W3C//DTD SVG 1.1//EN" "http://www.w3.org/Graphics/SVG/1.1/DTD/svg11.dtd">
<svg version="1.1" id="Layer_1" xmlns="http://www.w3.org/2000/svg" xmlns:xlink="http://www.w3.org/1999/xlink" x="0px" y="0px"
	 width="32px" height="32px" viewBox="1532 416 32 32" enable-background="new 1532 416 32 32" xml:space="preserve">
<g id="Line">
	<g>
		<path d="M1562.934,417.066v29.867h-29.867v-29.867H1562.934 M1564,416h-32v32h32V416L1564,416z"/>
		<path d="M1562.934,417.066v29.867h-29.867v-29.867H1562.934 M1564,416h-32v32h32V416L1564,416z"/>
	</g>
	<path d="M1556.396,438.959v-6.21c0-3.327-1.775-4.876-4.144-4.876c-1.911,0-2.767,1.052-3.245,1.789v-1.534h-3.6
		c0.048,1.017,0,10.831,0,10.831h3.6v-6.049c0-0.323,0.023-0.646,0.119-0.877c0.26-0.646,0.852-1.316,1.846-1.316
		c1.304,0,1.824,0.993,1.824,2.449v5.795L1556.396,438.959L1556.396,438.959z M1541.616,426.649c1.255,0,2.037-0.832,2.037-1.872
		c-0.023-1.062-0.782-1.871-2.013-1.871s-2.037,0.809-2.037,1.871c0,1.04,0.781,1.872,1.99,1.872H1541.616z M1543.416,438.959
		v-10.831h-3.601v10.831H1543.416z"/>
</g>
</svg>
