<?xml version="1.0" encoding="utf-8"?>
<!-- Generator: Adobe Illustrator 16.0.0, SVG Export Plug-In . SVG Version: 6.00 Build 0)  -->
<!DOCTYPE svg PUBLIC "-//W3C//DTD SVG 1.1//EN" "http://www.w3.org/Graphics/SVG/1.1/DTD/svg11.dtd">
<svg version="1.1" id="Layer_1" xmlns="http://www.w3.org/2000/svg" xmlns:xlink="http://www.w3.org/1999/xlink" x="0px" y="0px"
	 width="15.234px" height="20px" viewBox="184.287 31.497 15.234 20" enable-background="new 184.287 31.497 15.234 20"
	 xml:space="preserve">
<g>
	<path d="M191.904,31.497c-4.2,0-7.617,3.37-7.617,7.512c0,1.619,0.539,3.179,1.557,4.509l6.061,7.979l6.06-7.979
		c1.019-1.33,1.558-2.89,1.558-4.51C199.521,34.867,196.104,31.497,191.904,31.497z M191.904,49.843l-5.264-6.931
		c-0.885-1.156-1.354-2.506-1.354-3.904c0-3.59,2.969-6.511,6.617-6.511s6.617,2.921,6.617,6.511c0,1.398-0.468,2.748-1.353,3.902
		L191.904,49.843z"/>
	<path d="M191.904,36.148c-1.636,0-2.965,1.331-2.965,2.965c0,1.635,1.329,2.966,2.965,2.966s2.965-1.331,2.965-2.966
		C194.869,37.479,193.54,36.148,191.904,36.148z M191.904,41.08c-1.084,0-1.966-0.882-1.966-1.966c0-1.083,0.882-1.965,1.966-1.965
		c1.083,0,1.966,0.882,1.966,1.965C193.87,40.198,192.987,41.08,191.904,41.08z"/>
</g>
</svg>
