<?xml version="1.0" encoding="utf-8"?>
<!-- Generator: Adobe Illustrator 16.0.0, SVG Export Plug-In . SVG Version: 6.00 Build 0)  -->
<!DOCTYPE svg PUBLIC "-//W3C//DTD SVG 1.1//EN" "http://www.w3.org/Graphics/SVG/1.1/DTD/svg11.dtd">
<svg version="1.1" id="Layer_1" xmlns="http://www.w3.org/2000/svg" xmlns:xlink="http://www.w3.org/1999/xlink" x="0px" y="0px"
	 width="23.027px" height="22px" viewBox="1106.394 227.113 23.027 22" enable-background="new 1106.394 227.113 23.027 22"
	 xml:space="preserve">
<path d="M1129.395,247.379c-0.003-0.333-0.057-0.68-0.112-1.012c-0.08-0.43-0.163-0.875-0.303-1.292
	c-0.957-3.214-3.252-5.832-6.32-7.228c1.065-1.182,1.672-2.735,1.672-4.313c0-3.541-2.881-6.421-6.422-6.421
	c-3.54,0-6.421,2.88-6.421,6.421c0,1.578,0.605,3.131,1.671,4.312c-3.932,1.78-6.573,5.639-6.761,9.922
	c-0.03,0.341,0.083,0.668,0.324,0.945c0.22,0.25,0.565,0.4,0.925,0.4h20.497c0.37,0,0.698-0.142,0.925-0.4
	c0.23-0.264,0.352-0.585,0.352-0.93C1129.421,247.646,1129.421,247.506,1129.395,247.379z M1117.909,228.642
	c2.697,0,4.892,2.194,4.892,4.891c0,1.568-0.75,3.04-2.008,3.938c-0.857,0.624-1.854,0.954-2.884,0.954
	c-1.028,0-2.025-0.33-2.885-0.955c-1.256-0.897-2.006-2.369-2.006-3.937C1113.019,230.837,1115.212,228.642,1117.909,228.642z
	 M1114.486,238.956c1.008,0.654,2.189,0.999,3.424,0.999c1.227,0,2.417-0.345,3.45-1c2.954,1.065,5.254,3.505,6.164,6.546
	c0.108,0.379,0.211,0.738,0.263,1.125l0.001,0.011c0.048,0.264,0.074,0.55,0.099,0.827l0.006,0.058c0,0.019,0,0.039,0,0.06h-19.949
	c0.145-1.887,0.824-3.688,1.974-5.22C1111.088,240.8,1112.666,239.624,1114.486,238.956z"/>
</svg>
