<?xml version="1.0" encoding="utf-8"?>
<!-- Generator: Adobe Illustrator 16.0.0, SVG Export Plug-In . SVG Version: 6.00 Build 0)  -->
<!DOCTYPE svg PUBLIC "-//W3C//DTD SVG 1.1//EN" "http://www.w3.org/Graphics/SVG/1.1/DTD/svg11.dtd">
<svg version="1.1" id="Layer_1" xmlns="http://www.w3.org/2000/svg" xmlns:xlink="http://www.w3.org/1999/xlink" x="0px" y="0px"
	 width="24px" height="24px" viewBox="0 0 24 24" enable-background="new 0 0 24 24" xml:space="preserve">
<path d="M23.793,22.583l-5.623-5.624c3.676-4.344,3.135-10.845-1.211-14.522C12.615-1.237,6.113-0.696,2.437,3.648
	C-1.239,7.993-0.696,14.494,3.648,18.17c3.842,3.25,9.469,3.25,13.311,0l5.623,5.624c0.361,0.308,0.902,0.267,1.211-0.094
	C24.07,23.379,24.07,22.904,23.793,22.583z M1.718,10.314c0-4.742,3.846-8.586,8.588-8.586c4.741,0,8.586,3.844,8.586,8.586
	c0,4.743-3.846,8.586-8.586,8.586C5.564,18.9,1.718,15.055,1.718,10.314z"/>
</svg>
