<?xml version="1.0" encoding="utf-8"?>
<!-- Generator: Adobe Illustrator 16.0.0, SVG Export Plug-In . SVG Version: 6.00 Build 0)  -->
<!DOCTYPE svg PUBLIC "-//W3C//DTD SVG 1.1//EN" "http://www.w3.org/Graphics/SVG/1.1/DTD/svg11.dtd">
<svg version="1.1" id="Layer_1" xmlns="http://www.w3.org/2000/svg" xmlns:xlink="http://www.w3.org/1999/xlink" x="0px" y="0px"
	 width="61.045px" height="68px" viewBox="1098.424 170.108 61.045 68" enable-background="new 1098.424 170.108 61.045 68"
	 xml:space="preserve">
<g>
	<path d="M1103.348,190.145l6.895,6.896c0.376,0.375,0.875,0.582,1.406,0.582c0.53,0,1.029-0.207,1.405-0.583l6.895-6.895
		c0.304-0.303,0.593-0.627,0.859-0.96c1.662-2.071,2.578-4.677,2.578-7.339c-0.001-6.472-5.267-11.738-11.737-11.738
		c-6.473,0-11.738,5.266-11.738,11.738c0,2.663,0.916,5.27,2.577,7.338C1102.754,189.518,1103.044,189.842,1103.348,190.145z
		 M1111.648,171.634c5.63,0,10.21,4.581,10.211,10.21c0,2.35-0.775,4.557-2.242,6.385c-0.233,0.292-0.484,0.572-0.748,0.836
		l-6.893,6.894c-0.176,0.175-0.479,0.174-0.654,0l-6.895-6.895c-0.263-0.263-0.515-0.544-0.748-0.837
		c-1.467-1.827-2.242-4.034-2.242-6.383C1101.437,176.215,1106.018,171.634,1111.648,171.634z"/>
	<path d="M1111.648,187.944c3.362,0,6.098-2.736,6.098-6.098c0-3.362-2.735-6.098-6.098-6.098s-6.098,2.736-6.098,6.098
		C1105.55,185.207,1108.284,187.944,1111.648,187.944z M1111.648,177.274c2.521,0,4.571,2.051,4.571,4.571s-2.051,4.571-4.571,4.571
		s-4.571-2.051-4.571-4.571S1109.127,177.274,1111.648,177.274z"/>
	<path d="M1150.808,217.883c-4.775,0-8.659,3.885-8.659,8.66c0,1.964,0.675,3.887,1.9,5.413c0.197,0.248,0.411,0.486,0.636,0.71
		l4.961,4.961c0.312,0.31,0.725,0.481,1.163,0.481c0.439,0,0.852-0.171,1.163-0.482l4.961-4.961
		c0.225-0.225,0.438-0.463,0.634-0.708c1.226-1.527,1.902-3.451,1.902-5.415C1159.467,221.767,1155.582,217.883,1150.808,217.883z
		 M1156.374,231.003c-0.162,0.203-0.338,0.399-0.522,0.583l-4.96,4.961c-0.028,0.029-0.062,0.035-0.084,0.035
		s-0.056-0.006-0.084-0.034l-4.96-4.961c-0.185-0.184-0.36-0.38-0.522-0.585c-1.025-1.275-1.566-2.818-1.566-4.459
		c0-3.934,3.199-7.133,7.133-7.133s7.133,3.2,7.133,7.133C1157.941,228.184,1157.4,229.726,1156.374,231.003z"/>
	<path d="M1150.808,221.94c-2.537,0-4.602,2.065-4.602,4.602s2.064,4.603,4.602,4.603s4.603-2.064,4.603-4.603
		C1155.41,224.005,1153.346,221.94,1150.808,221.94z M1150.808,229.617c-1.695,0-3.075-1.379-3.075-3.075s1.38-3.075,3.075-3.075
		s3.075,1.379,3.075,3.075S1152.503,229.617,1150.808,229.617z"/>
	<path d="M1139.293,225.779h-30.476c-4.889,0-8.866-3.978-8.866-8.866c0-4.889,3.978-8.866,8.866-8.866h36.264
		c7.435,0,13.482-6.048,13.482-13.482s-6.048-13.482-13.482-13.482h-19.146c-0.422,0-0.764,0.342-0.764,0.763
		c0,0.422,0.343,0.764,0.764,0.764h19.146c6.592,0,11.956,5.363,11.956,11.955c0,6.592-5.364,11.956-11.956,11.956h-36.264
		c-5.73,0-10.394,4.663-10.394,10.394c0,5.73,4.663,10.393,10.394,10.393h30.476c0.422,0,0.763-0.341,0.763-0.763
		C1140.056,226.121,1139.714,225.779,1139.293,225.779z"/>
</g>
</svg>
