<?xml version="1.0" encoding="utf-8"?>
<!-- Generator: Adobe Illustrator 16.0.0, SVG Export Plug-In . SVG Version: 6.00 Build 0)  -->
<!DOCTYPE svg PUBLIC "-//W3C//DTD SVG 1.1//EN" "http://www.w3.org/Graphics/SVG/1.1/DTD/svg11.dtd">
<svg version="1.1" id="Layer_1" xmlns="http://www.w3.org/2000/svg" xmlns:xlink="http://www.w3.org/1999/xlink" x="0px" y="0px"
	 width="21.724px" height="28px" viewBox="1150.083 224.111 21.724 28" enable-background="new 1150.083 224.111 21.724 28"
	 xml:space="preserve">
<g>
	<path d="M1163.662,243.392l-4.154-3.178c0.624-1.328,0.624-2.867,0.003-4.195l4.163-3.175c1.664,1.399,4.289,1.672,6.278,0.08
		c2.177-1.743,2.442-4.864,0.771-6.953c-1.591-1.987-4.675-2.594-6.952-0.771c-1.795,1.437-2.347,3.933-1.381,5.975l-4.156,3.17
		c-1.725-1.474-4.613-1.734-6.628,0.199c-1.972,1.891-2.036,5.022-0.146,6.993c1.773,1.848,4.699,2.1,6.766,0.346l4.156,3.179
		c-0.879,1.87-0.504,4.113,0.982,5.599c1.808,1.807,4.943,2.051,6.994,0c1.929-1.929,1.929-5.066,0-6.995
		C1168.957,242.265,1166.056,241.356,1163.662,243.392z M1164.757,226.433c1.449-1.16,3.573-0.925,4.733,0.524
		c1.16,1.45,0.925,3.573-0.524,4.733c-1.449,1.161-3.573,0.925-4.733-0.524S1163.308,227.594,1164.757,226.433z M1157.361,240.544
		c-1.34,1.285-3.476,1.241-4.761-0.099s-1.241-3.476,0.099-4.761s3.476-1.241,4.761,0.099
		C1158.745,237.122,1158.7,239.258,1157.361,240.544z M1169.242,249.546c-1.312,1.313-3.449,1.313-4.763,0
		c-1.312-1.312-1.312-3.449,0-4.762c1.313-1.312,3.45-1.312,4.763,0C1170.556,246.097,1170.556,248.233,1169.242,249.546z"/>
</g>
</svg>
