<?xml version="1.0" encoding="utf-8"?>
<!-- Generator: Adobe Illustrator 16.0.0, SVG Export Plug-In . SVG Version: 6.00 Build 0)  -->
<!DOCTYPE svg PUBLIC "-//W3C//DTD SVG 1.1//EN" "http://www.w3.org/Graphics/SVG/1.1/DTD/svg11.dtd">
<svg version="1.1" id="Layer_1" xmlns="http://www.w3.org/2000/svg" xmlns:xlink="http://www.w3.org/1999/xlink" x="0px" y="0px"
	 width="32px" height="32px" viewBox="1137 413 32 32" enable-background="new 1137 413 32 32" xml:space="preserve">
<g>
	<g>
		<path d="M1167.934,414.066v29.867h-29.867v-29.867H1167.934 M1169,413h-32v32h32V413L1169,413z"/>
		<path d="M1167.934,414.066v29.867h-29.867v-29.867H1167.934 M1169,413h-32v32h32V413L1169,413z"/>
	</g>
	<path d="M1155.284,421.704c-1.632,0.593-2.661,2.124-2.544,3.799l0.039,0.646l-0.652-0.079c-2.375-0.303-4.449-1.332-6.212-3.06
		l-0.862-0.859l-0.221,0.634c-0.47,1.411-0.17,2.902,0.809,3.905c0.521,0.555,0.404,0.634-0.496,0.303
		c-0.314-0.105-0.588-0.185-0.613-0.145c-0.092,0.093,0.221,1.292,0.469,1.768c0.34,0.66,1.03,1.306,1.787,1.688l0.641,0.303
		l-0.756,0.013c-0.73,0-0.757,0.013-0.679,0.291c0.261,0.858,1.292,1.768,2.439,2.165l0.809,0.275l-0.704,0.423
		c-1.043,0.608-2.27,0.95-3.496,0.976c-0.588,0.014-1.071,0.066-1.071,0.106c0,0.131,1.593,0.87,2.519,1.16
		c2.778,0.857,6.08,0.487,8.56-0.976c1.761-1.043,3.522-3.114,4.346-5.119c0.443-1.068,0.888-3.021,0.888-3.957
		c0-0.607,0.039-0.686,0.77-1.411c0.432-0.422,0.836-0.883,0.913-1.016c0.132-0.25,0.118-0.25-0.548-0.026
		c-1.109,0.396-1.267,0.343-0.718-0.251c0.404-0.422,0.888-1.187,0.888-1.411c0-0.04-0.195,0.027-0.419,0.145
		c-0.234,0.132-0.756,0.33-1.147,0.448l-0.704,0.225l-0.64-0.437c-0.352-0.237-0.848-0.501-1.109-0.58
		C1156.902,421.467,1155.883,421.493,1155.284,421.704z"/>
</g>
</svg>
