<?xml version="1.0" encoding="utf-8"?>
<!-- Generator: Adobe Illustrator 16.0.0, SVG Export Plug-In . SVG Version: 6.00 Build 0)  -->
<!DOCTYPE svg PUBLIC "-//W3C//DTD SVG 1.1//EN" "http://www.w3.org/Graphics/SVG/1.1/DTD/svg11.dtd">
<svg version="1.1" id="Isolation_Mode" xmlns="http://www.w3.org/2000/svg" xmlns:xlink="http://www.w3.org/1999/xlink" x="0px"
	 y="0px" width="33.001px" height="33px" viewBox="0 0 33.001 33" enable-background="new 0 0 33.001 33" xml:space="preserve">
<g>
	<g>
		<path d="M16.453,33c-3.163,0-6.259-0.912-8.966-2.677c-7.623-4.968-9.784-15.211-4.815-22.835
			C7.64-0.136,17.884-2.296,25.507,2.672l-0.945,1.451C17.738-0.324,8.569,1.61,4.122,8.434c-4.446,6.824-2.513,15.992,4.312,20.439
			c3.299,2.15,7.245,2.886,11.11,2.07s7.178-3.082,9.328-6.382c1.302-1.996,2.083-4.202,2.322-6.555
			c0.229-2.247-0.068-4.556-0.858-6.677l1.623-0.604c0.882,2.369,1.214,4.947,0.958,7.458c-0.268,2.63-1.14,5.095-2.594,7.325
			c-2.403,3.688-6.104,6.22-10.422,7.13C18.754,32.88,17.599,33,16.453,33z"/>
	</g>
	<g>
		<path d="M12.311,25.771V8.892l12.688,7.553L12.311,25.771z M14.043,11.938v10.411l7.825-5.752L14.043,11.938z"/>
	</g>
</g>
</svg>
