<?xml version="1.0" encoding="utf-8"?>
<!-- Generator: Adobe Illustrator 16.0.0, SVG Export Plug-In . SVG Version: 6.00 Build 0)  -->
<!DOCTYPE svg PUBLIC "-//W3C//DTD SVG 1.1//EN" "http://www.w3.org/Graphics/SVG/1.1/DTD/svg11.dtd">
<svg version="1.1" id="Layer_1" xmlns="http://www.w3.org/2000/svg" xmlns:xlink="http://www.w3.org/1999/xlink" x="0px" y="0px"
	 width="32px" height="32px" viewBox="1526.491 515.25 32 32" enable-background="new 1526.491 515.25 32 32" xml:space="preserve">
<g id="Line">
	<g>
		<path d="M1557.425,516.316v29.867h-29.867v-29.867H1557.425 M1558.491,515.25h-32v32h32V515.25L1558.491,515.25z"/>
		<path d="M1557.425,516.316v29.867h-29.867v-29.867H1557.425 M1558.491,515.25h-32v32h32V515.25L1558.491,515.25z"/>
	</g>
	<g>
		<path d="M1551.965,527.127c0,0-0.188-1.422-0.768-2.048c-0.736-0.82-1.56-0.825-1.938-0.872c-2.706-0.21-6.765-0.21-6.765-0.21
			h-0.009c0,0-4.059,0-6.764,0.21c-0.378,0.047-1.201,0.051-1.938,0.872c-0.579,0.626-0.768,2.048-0.768,2.048
			s-0.193,1.669-0.193,3.338v1.563c0,1.671,0.193,3.339,0.193,3.339s0.188,1.422,0.768,2.047c0.736,0.82,1.701,0.796,2.132,0.883
			c1.547,0.157,6.574,0.206,6.574,0.206s4.062-0.007,6.769-0.214c0.378-0.048,1.201-0.054,1.938-0.874
			c0.579-0.625,0.768-2.047,0.768-2.047s0.193-1.669,0.193-3.339v-1.563C1552.158,528.796,1551.965,527.127,1551.965,527.127z
			 M1540.076,534.877v-7.254l6.044,3.627L1540.076,534.877z"/>
	</g>
</g>
</svg>
