<?xml version="1.0" encoding="utf-8"?>
<!-- Generator: Adobe Illustrator 16.0.0, SVG Export Plug-In . SVG Version: 6.00 Build 0)  -->
<!DOCTYPE svg PUBLIC "-//W3C//DTD SVG 1.1//EN" "http://www.w3.org/Graphics/SVG/1.1/DTD/svg11.dtd">
<svg version="1.1" id="Layer_1" xmlns="http://www.w3.org/2000/svg" xmlns:xlink="http://www.w3.org/1999/xlink" x="0px" y="0px"
	 width="24px" height="24px" viewBox="956.999 201.587 24 24" enable-background="new 956.999 201.587 24 24" xml:space="preserve">
<g>
	<path d="M980.792,224.169l-5.624-5.624c3.676-4.344,3.134-10.845-1.211-14.521c-4.344-3.675-10.845-3.133-14.521,1.211
		s-3.134,10.845,1.211,14.521c3.842,3.25,9.469,3.25,13.31,0l5.624,5.624c0.36,0.308,0.902,0.266,1.211-0.094
		C981.068,224.965,981.068,224.49,980.792,224.169z M958.717,211.9c0-4.742,3.845-8.586,8.587-8.586
		c4.741,0,8.586,3.844,8.586,8.586c0,4.742-3.845,8.586-8.586,8.586C962.562,220.486,958.717,216.641,958.717,211.9z"/>
	<path d="M971.596,211.041h-3.435v-3.435c0-0.474-0.384-0.858-0.857-0.858c-0.475,0-0.859,0.384-0.859,0.858v3.435h-3.435
		c-0.474,0-0.858,0.384-0.858,0.859c0,0.474,0.385,0.858,0.858,0.858h3.435v3.435c0,0.474,0.385,0.858,0.859,0.858
		c0.474,0,0.857-0.384,0.857-0.858v-3.435h3.435c0.475,0,0.859-0.384,0.859-0.858C972.455,211.425,972.071,211.041,971.596,211.041z
		"/>
</g>
</svg>
